<svg width="20" height="20" viewBox="0 0 0.8 0.8" xmlns="http://www.w3.org/2000/svg" fill="currentColor"><path d="M.355.675.348.674a.035.035 0 0 1-.024-.04l.09-.481A.03.03 0 0 1 .429.13.03.03 0 0 1 .452.126a.035.035 0 0 1 .024.04l-.09.481A.03.03 0 0 1 .371.67a.03.03 0 0 1-.016.005M.536.607H.534A.03.03 0 0 1 .512.594.036.036 0 0 1 .515.547L.67.395.515.254A.036.036 0 0 1 .51.207.03.03 0 0 1 .532.194a.03.03 0 0 1 .024.008l.182.167a.036.036 0 0 1 .005.047L.738.421.556.598a.03.03 0 0 1-.021.009m-.271 0A.03.03 0 0 1 .243.598L.061.421.056.416A.036.036 0 0 1 .061.369L.243.202A.03.03 0 0 1 .266.194a.03.03 0 0 1 .022.013.036.036 0 0 1-.005.047L.13.395l.155.152a.036.036 0 0 1 .003.047.03.03 0 0 1-.022.013z"/></svg>
