<svg width="16" height="16" viewBox="0 0 0.48 0.48" xmlns="http://www.w3.org/2000/svg"><g fill="none"><path d="M.48 0v.48H0V0zM.252.465.251.466.25.465v.009l.002.001.002-.001V.465M.259.463.255.465v.009l.004.002H.26L.259.464m-.014 0H.244L.243.476.247.474V.465z"/><path d="M.22.12a.02.02 0 1 1 0 .04H.1v.22h.22V.26a.02.02 0 1 1 .04 0v.12a.04.04 0 0 1-.04.04H.1A.04.04 0 0 1 .06.38V.16A.04.04 0 0 1 .1.12zM.4.06a.02.02 0 0 1 .02.02v.1a.02.02 0 1 1-.04 0V.128L.214.294A.02.02 0 0 1 .186.266L.352.1H.3a.02.02 0 1 1 0-.04Z" fill="currentColor"/></g></svg>
