<svg width="20" height="20" viewBox="0 0 1.2 1.2" fill="none" xmlns="http://www.w3.org/2000/svg"><path d="M1.2 0H0v1.2h1.2z" fill="#fff" fill-opacity=".01"/><path d="M.338.984a.42.42 0 0 0 .262.091c.099 0 .19-.034.263-.091M.475.244a.424.424 0 0 0-.277.544M.725.244a.424.424 0 0 1 .277.544" stroke="currentColor" stroke-width=".1"/><path d="M1.075.9a.12.12 0 0 1-.035.086A.125.125 0 1 1 1.075.9m-.7 0A.12.12 0 0 1 .34.986.125.125 0 1 1 .375.9m.35-.675A.12.12 0 0 1 .69.311.125.125 0 1 1 .725.225" fill="currentColor" stroke="currentColor" stroke-width=".1" stroke-linecap="round" stroke-linejoin="round"/></svg>
