<svg xmlns="http://www.w3.org/2000/svg" width="20" height="20" viewBox="0 0 1.3 1.3" xml:space="preserve" fill="currentColor"><path d="M.653.477C.556.477.477.554.477.653s.077.176.176.176S.829.751.829.653.751.477.653.477"/><path d="M1.177.81 1.084.733a.6.6 0 0 0 0-.171l.093-.078a.086.086 0 0 0 .02-.105l-.04-.07a.09.09 0 0 0-.073-.04l-.027.005-.116.043A.4.4 0 0 0 .794.231L.776.116C.769.076.733.053.693.053h-.08C.573.053.537.076.53.116L.51.231a.4.4 0 0 0-.15.086L.244.274Q.23.27.217.269a.09.09 0 0 0-.073.04l-.04.07a.086.086 0 0 0 .02.106l.093.077a.6.6 0 0 0 0 .171L.126.807a.086.086 0 0 0-.02.106l.04.07q.025.038.073.04l.027-.006.116-.043a.4.4 0 0 0 .147.086l.02.12a.086.086 0 0 0 .083.067h.08a.086.086 0 0 0 .082-.07l.02-.12A.4.4 0 0 0 .95.964l.107.043.03.006a.09.09 0 0 0 .073-.04l.037-.066C1.22.88 1.21.834 1.18.81zM.651.927a.275.275 0 1 1 0-.55.275.275 0 0 1 0 .55"/></svg>
