<svg width="20" height="20" viewBox="0 0 25.6 25.6" xmlns="http://www.w3.org/2000/svg" fill="currentColor"><path d="M16.094 21.922a9.6 9.6 0 0 0 4.65-3.433.5.5 0 0 0 .142-.434l-.002-.015v-.001a.5.5 0 0 0-.268-.354l-1.413-1.002a.5.5 0 0 0-.432-.136l-.012.002h-.002a.5.5 0 0 0-.354.263 6.7 6.7 0 0 1-3.246 2.39c-3.52 1.212-7.341-.644-8.549-4.152s.661-7.323 4.181-8.535c3.3-1.136 6.84.374 8.27 3.451l-2.236.014a.5.5 0 0 0-.525.308.49.49 0 0 0 .158.578l3.842 3.879a.494.494 0 0 0 .718-.016l3.704-4.069a.49.49 0 0 0 .149-.551l-.004-.01-.031-.065-.001-.002a.49.49 0 0 0-.502-.244l-2.237.024-.029-.085c-1.722-5-7.197-7.659-12.213-5.931S2.159 10.99 3.881 15.99s7.197 7.659 12.213 5.931z"/></svg>
